SplineFontDB: 3.2
FontName: ExploreSans
FullName: Explore Sans
FamilyName: Explore Sans
Weight: Bold
Copyright: Copyright (c) 2025, Bastien
UComments: "2025-9-14: Created with FontForge (http://fontforge.org)"
Version: 001.000
ItalicAngle: 0
UnderlinePosition: -102
UnderlineWidth: 51
Ascent: 809
Descent: 215
InvalidEm: 0
LayerCount: 2
Layer: 0 0 "Arri+AOgA-re" 1
Layer: 1 0 "Avant" 1
XUID: [1021 760 1580941675 14335030]
FSType: 0
OS2Version: 0
OS2_WeightWidthSlopeOnly: 0
OS2_UseTypoMetrics: 0
CreationTime: 1757865220
ModificationTime: 1757865627
PfmFamily: 33
TTFWeight: 700
TTFWidth: 5
LineGap: 192
VLineGap: 0
OS2TypoAscent: 800
OS2TypoAOffset: 0
OS2TypoDescent: -224
OS2TypoDOffset: 0
OS2TypoLinegap: 192
OS2WinAscent: 800
OS2WinAOffset: 0
OS2WinDescent: 224
OS2WinDOffset: 0
HheadAscent: 800
HheadAOffset: 0
HheadDescent: 224
HheadDOffset: 0
OS2CapHeight: 708
OS2XHeight: 520
OS2FamilyClass: 2049
OS2Vendor: 'PfEd'
MarkAttachClasses: 1
DEI: 91125
Encoding: UnicodeBmp
Compacted: 1
UnicodeInterp: none
NameList: AGL For New Fonts
DisplaySize: -72
AntiAlias: 1
FitToEm: 0
WinInfo: 13 13 7
BeginPrivate: 0
EndPrivate
BeginChars: 65536 173

StartChar: A
Encoding: 65 65 1
Width: 657
VWidth: 1036
GlyphClass: 1
Flags: HW
LayerCount: 2
Fore
SplineSet
252 708 m 1
 419 708 l 1
 645 0 l 1
 512 0 l 1
 462 168 l 1
 200 168 l 1
 147 0 l 1
 12 0 l 1
 252 708 l 1
334 588 m 1
 232 270 l 1
 434 270 l 1
 339 588 l 1
 334 588 l 1
EndSplineSet
Validated: 1
EndChar

StartChar: AE
Encoding: 198 198 2
Width: 924
VWidth: 1036
GlyphClass: 1
Flags: HW
LayerCount: 2
Fore
SplineSet
359 708 m 1
 886 708 l 1
 886 600 l 1
 564 600 l 1
 564 431 l 1
 808 431 l 1
 808 320 l 1
 564 320 l 1
 564 108 l 1
 886 108 l 1
 886 0 l 1
 430 0 l 1
 430 168 l 1
 238 168 l 1
 158 0 l 1
 16 0 l 1
 359 708 l 1
430 597 m 1
 280 276 l 1
 430 276 l 1
 430 597 l 1
EndSplineSet
Validated: 1
EndChar

StartChar: B
Encoding: 66 66 9
Width: 643
VWidth: 1036
GlyphClass: 1
Flags: HW
LayerCount: 2
Fore
SplineSet
72 708 m 1
 356 708 l 2
 484 708 576 641 576 532 c 0
 576 448 537 400 473 376 c 1
 556 357 608 298 608 196 c 0
 608 64 504 0 376 0 c 2
 72 0 l 1
 72 708 l 1
206 596 m 1
 206 424 l 1
 342 424 l 2
 409 424 441 452 441 512 c 0
 441 567 407 596 339 596 c 2
 206 596 l 1
206 320 m 1
 206 112 l 1
 356 112 l 2
 430 112 472 147 472 215 c 0
 472 287 427 320 343 320 c 2
 206 320 l 1
EndSplineSet
Validated: 1
EndChar

StartChar: C
Encoding: 67 67 10
Width: 639
VWidth: 1036
GlyphClass: 1
Flags: HW
LayerCount: 2
Fore
SplineSet
363 716 m 0
 463 716 534 687 611 623 c 1
 554 542 l 1
 492 594 438 608 372 608 c 0
 256 608 179 519 179 352 c 0
 179 235 220 101 370 101 c 0
 435 101 504 119 562 168 c 1
 617 80 l 1
 574 44 492 -7 360 -7 c 0
 172 -7 44 123 44 352 c 0
 44 500 125 716 363 716 c 0
EndSplineSet
Validated: 1
EndChar

StartChar: D
Encoding: 68 68 12
Width: 657
VWidth: 1036
GlyphClass: 1
Flags: HW
LayerCount: 2
Fore
SplineSet
207 595 m 1
 207 112 l 1
 288 112 l 2
 425 112 487 195 487 361 c 0
 487 518 422 595 290 595 c 2
 207 595 l 1
71 708 m 1
 300 708 l 2
 507 708 622 575 622 361 c 0
 622 131 508 0 296 0 c 2
 71 0 l 1
 71 708 l 1
EndSplineSet
Validated: 1
EndChar

StartChar: E
Encoding: 69 69 13
Width: 585
VWidth: 1036
GlyphClass: 1
Flags: HW
LayerCount: 2
Fore
SplineSet
71 708 m 1
 539 708 l 1
 539 596 l 1
 207 596 l 1
 207 420 l 1
 471 420 l 1
 471 310 l 1
 207 310 l 1
 207 112 l 1
 546 112 l 1
 546 0 l 1
 71 0 l 1
 71 708 l 1
EndSplineSet
Validated: 1
EndChar

StartChar: Euro
Encoding: 8364 8364 18
Width: 693
GlyphClass: 1
Flags: HW
LayerCount: 2
Fore
SplineSet
427 716 m 0
 519 716 594 692 658 640 c 1
 614 558 l 1
 548 608 492 618 426 618 c 0
 370 618 290 602 250 495 c 1
 535 495 l 1
 502 400 l 1
 232 400 l 1
 230 389 230 364 230 352 c 0
 230 344 231 322 231 314 c 1
 474 314 l 1
 443 218 l 1
 244 218 l 1
 254 178 298 90 425 90 c 0
 489 90 566 106 626 148 c 1
 660 62 l 1
 596 22 527 -8 420 -8 c 0
 314 -8 164 32 114 218 c 1
 26 218 l 1
 26 314 l 1
 104 314 l 1
 104 322 102 344 102 352 c 0
 102 364 102 389 104 400 c 1
 26 400 l 1
 26 495 l 1
 120 495 l 1
 160 605 240 716 427 716 c 0
EndSplineSet
Validated: 1
EndChar

StartChar: F
Encoding: 70 70 19
Width: 582
VWidth: 1036
GlyphClass: 1
Flags: HW
LayerCount: 2
Fore
SplineSet
71 708 m 1
 540 708 l 1
 540 594 l 1
 208 594 l 1
 208 416 l 1
 462 416 l 1
 462 306 l 1
 208 306 l 1
 208 0 l 1
 71 0 l 1
 71 708 l 1
EndSplineSet
Validated: 1
EndChar

StartChar: G
Encoding: 71 71 20
Width: 674
VWidth: 1036
GlyphClass: 1
Flags: HW
LayerCount: 2
Fore
SplineSet
370 716 m 0
 460 716 538 690 614 624 c 1
 554 542 l 1
 508 578 457 607 372 607 c 0
 250 607 178 532 178 350 c 0
 178 233 209 98 377 98 c 0
 414 98 452 102 493 110 c 1
 493 304 l 1
 343 304 l 1
 343 406 l 1
 622 406 l 1
 622 32 l 1
 566 14 470 -8 372 -8 c 0
 183 -8 43 81 43 352 c 0
 43 558 136 716 370 716 c 0
EndSplineSet
Validated: 1
EndChar

StartChar: H
Encoding: 72 72 21
Width: 663
VWidth: 1036
GlyphClass: 1
Flags: HW
LayerCount: 2
Fore
SplineSet
71 708 m 1
 207 708 l 1
 207 432 l 1
 457 432 l 1
 457 708 l 1
 593 708 l 1
 593 0 l 1
 457 0 l 1
 457 312 l 1
 207 312 l 1
 207 0 l 1
 71 0 l 1
 71 708 l 1
EndSplineSet
Validated: 1
EndChar

StartChar: I
Encoding: 73 73 22
Width: 276
VWidth: 1036
GlyphClass: 1
Flags: HW
LayerCount: 2
Fore
SplineSet
70 708 m 1
 206 708 l 1
 206 0 l 1
 70 0 l 1
 70 708 l 1
EndSplineSet
Validated: 1
EndChar

StartChar: J
Encoding: 74 74 27
Width: 429
VWidth: 1036
GlyphClass: 1
Flags: HW
LayerCount: 2
Fore
SplineSet
223 708 m 1
 359 708 l 1
 359 244 l 2
 359 108 293 -8 131 -8 c 0
 85 -8 43 -2 25 2 c 1
 36 104 l 1
 118 104 l 1
 188 104 223 148 223 240 c 2
 223 708 l 1
EndSplineSet
Validated: 1
EndChar

StartChar: K
Encoding: 75 75 28
Width: 641
VWidth: 1036
GlyphClass: 1
Flags: HW
LayerCount: 2
Fore
SplineSet
75 708 m 1
 211 708 l 1
 211 428 l 1
 232 428 l 1
 454 708 l 1
 622 708 l 1
 325 360 l 1
 624 0 l 1
 454 0 l 1
 232 292 l 1
 211 292 l 1
 211 0 l 1
 75 0 l 1
 75 708 l 1
EndSplineSet
Validated: 1
EndChar

StartChar: L
Encoding: 76 76 29
Width: 559
VWidth: 1036
GlyphClass: 1
Flags: HW
LayerCount: 2
Fore
SplineSet
71 708 m 1
 207 708 l 1
 207 112 l 1
 516 112 l 1
 516 0 l 1
 71 0 l 1
 71 708 l 1
EndSplineSet
Validated: 1
EndChar

StartChar: M
Encoding: 77 77 30
Width: 785
VWidth: 1036
GlyphClass: 1
Flags: HW
LayerCount: 2
Fore
SplineSet
72 708 m 1
 212 708 l 1
 392 314 l 1
 572 708 l 1
 713 708 l 1
 713 0 l 1
 577 0 l 1
 577 451 l 1
 451 164 l 1
 339 164 l 1
 208 452 l 1
 208 0 l 1
 72 0 l 1
 72 708 l 1
EndSplineSet
Validated: 1
EndChar

StartChar: N
Encoding: 78 78 31
Width: 712
VWidth: 1036
GlyphClass: 1
Flags: HW
LayerCount: 2
Fore
SplineSet
75 708 m 1
 214 708 l 1
 502 237 l 1
 502 708 l 1
 638 708 l 1
 638 0 l 1
 498 0 l 1
 211 483 l 1
 211 0 l 1
 75 0 l 1
 75 708 l 1
EndSplineSet
Validated: 1
EndChar

StartChar: O
Encoding: 79 79 32
Width: 691
VWidth: 1036
GlyphClass: 1
Flags: HW
LayerCount: 2
Fore
SplineSet
348 716 m 0
 493 716 648 630 648 358 c 0
 648 176 567 -8 347 -8 c 0
 201 -8 43 80 43 356 c 0
 43 520 118 716 348 716 c 0
347 604 m 0
 237 604 179 518 179 356 c 0
 179 191 238 104 348 104 c 0
 478 104 512 230 512 356 c 0
 512 482 478 604 347 604 c 0
EndSplineSet
Validated: 1
EndChar

StartChar: P
Encoding: 80 80 38
Width: 642
VWidth: 1036
GlyphClass: 1
Flags: HW
LayerCount: 2
Fore
SplineSet
209 596 m 1
 209 350 l 1
 338 350 l 2
 422 350 464 392 464 478 c 0
 464 556 424 596 348 596 c 2
 209 596 l 1
75 708 m 1
 352 708 l 2
 508 708 600 623 600 478 c 0
 600 323 506 238 334 238 c 2
 209 238 l 1
 209 0 l 1
 75 0 l 1
 75 708 l 1
EndSplineSet
Validated: 1
EndChar

StartChar: Q
Encoding: 81 81 39
Width: 691
VWidth: 1036
GlyphClass: 1
Flags: HW
LayerCount: 2
Fore
SplineSet
346 604 m 0
 237 604 177 516 177 355 c 0
 177 189 235 104 346 104 c 0
 456 104 511 189 511 355 c 0
 511 521 456 604 346 604 c 0
346 716 m 0
 534 716 647 582 647 358 c 0
 647 152 557 22 400 -2 c 1
 408 -50 440 -77 490 -77 c 2
 587 -77 l 1
 596 -172 l 1
 562 -180 518 -184 480 -184 c 0
 366 -184 287 -110 281 0 c 1
 129 28 41 156 41 356 c 0
 41 580 156 716 346 716 c 0
EndSplineSet
Validated: 1
EndChar

StartChar: R
Encoding: 82 82 40
Width: 647
VWidth: 1036
GlyphClass: 1
Flags: HW
LayerCount: 2
Fore
SplineSet
208 597 m 1
 208 362 l 1
 334 362 l 2
 414 362 457 402 457 484 c 0
 457 558 419 597 342 597 c 2
 208 597 l 1
72 708 m 1
 344 708 l 2
 506 708 593 622 593 486 c 0
 593 381 543 306 446 272 c 1
 618 0 l 1
 472 0 l 1
 322 252 l 1
 208 252 l 1
 208 0 l 1
 72 0 l 1
 72 708 l 1
EndSplineSet
Validated: 1
EndChar

StartChar: S
Encoding: 83 83 41
Width: 610
VWidth: 1036
GlyphClass: 1
Flags: HW
LayerCount: 2
Fore
SplineSet
321 716 m 0
 419 716 496 688 570 626 c 1
 514 543 l 1
 460 585 392 607 322 607 c 0
 240 607 184 580 184 512 c 0
 184 456 210 434 304 414 c 2
 376 398 l 2
 515 372 579 306 579 196 c 0
 579 112 522 -8 296 -8 c 0
 199 -8 98 18 22 76 c 1
 82 168 l 1
 151 115 222 98 302 98 c 0
 399 98 446 131 446 193 c 0
 446 253 412 277 314 296 c 2
 252 308 l 2
 118 332 49 399 49 517 c 0
 49 609 111 716 321 716 c 0
EndSplineSet
Validated: 1
EndChar

StartChar: T
Encoding: 84 84 42
Width: 641
VWidth: 1036
GlyphClass: 1
Flags: HW
LayerCount: 2
Fore
SplineSet
43 708 m 1
 598 708 l 1
 598 594 l 1
 389 594 l 1
 389 0 l 1
 253 0 l 1
 253 594 l 1
 43 594 l 1
 43 708 l 1
EndSplineSet
Validated: 1
EndChar

StartChar: Thorn
Encoding: 222 222 43
Width: 588
GlyphClass: 1
Flags: HW
LayerCount: 2
Fore
SplineSet
75 708 m 1
 211 708 l 1
 211 581 l 1
 305 581 l 2
 469 581 546 489 546 358 c 0
 546 236 461 138 299 138 c 2
 211 138 l 1
 211 0 l 1
 75 0 l 1
 75 708 l 1
211 479 m 1
 211 240 l 1
 297 240 l 2
 367 240 412 282 412 358 c 0
 412 437 366 479 300 479 c 2
 211 479 l 1
EndSplineSet
Validated: 1
EndChar

StartChar: U
Encoding: 85 85 44
Width: 675
VWidth: 1036
GlyphClass: 1
Flags: HW
LayerCount: 2
Fore
SplineSet
67 708 m 1
 203 708 l 1
 203 282 l 1
 203 190 225 104 339 104 c 1
 456 104 473 202 473 282 c 1
 473 708 l 1
 609 708 l 1
 609 272 l 1
 609 121 527 -8 336 -8 c 1
 204 -8 67 52 67 274 c 1
 67 708 l 1
EndSplineSet
Validated: 1
EndChar

StartChar: V
Encoding: 86 86 49
Width: 676
VWidth: 1036
GlyphClass: 1
Flags: HW
LayerCount: 2
Fore
SplineSet
23 708 m 1
 162 708 l 1
 338 162 l 1
 514 708 l 1
 653 708 l 1
 414 0 l 1
 262 0 l 1
 23 708 l 1
EndSplineSet
Validated: 1
EndChar

StartChar: W
Encoding: 87 87 50
Width: 851
VWidth: 1036
GlyphClass: 1
Flags: HW
LayerCount: 2
Fore
SplineSet
16 708 m 1
 144 708 l 1
 252 182 l 1
 365 708 l 1
 494 708 l 1
 600 186 l 1
 707 708 l 1
 834 708 l 1
 671 0 l 1
 528 0 l 1
 429 452 l 1
 327 0 l 1
 180 0 l 1
 16 708 l 1
EndSplineSet
Validated: 1
EndChar

StartChar: X
Encoding: 88 88 51
Width: 685
VWidth: 1036
GlyphClass: 1
Flags: HW
LayerCount: 2
Fore
SplineSet
28 708 m 1
 174 708 l 1
 342 438 l 1
 510 708 l 1
 658 708 l 1
 424 354 l 1
 658 0 l 1
 510 0 l 1
 342 271 l 1
 174 0 l 1
 28 0 l 1
 256 354 l 1
 28 708 l 1
EndSplineSet
Validated: 1
EndChar

StartChar: Y
Encoding: 89 89 52
Width: 621
VWidth: 1036
GlyphClass: 1
Flags: HW
LayerCount: 2
Fore
SplineSet
12 708 m 1
 150 708 l 1
 312 374 l 1
 470 708 l 1
 609 708 l 1
 379 270 l 1
 379 0 l 1
 244 0 l 1
 244 270 l 1
 12 708 l 1
EndSplineSet
Validated: 1
EndChar

StartChar: Z
Encoding: 90 90 54
Width: 632
VWidth: 1036
GlyphClass: 1
Flags: HW
LayerCount: 2
Fore
SplineSet
55 708 m 1
 576 708 l 1
 576 612 l 1
 218 112 l 1
 578 112 l 1
 578 0 l 1
 55 0 l 1
 55 96 l 1
 414 596 l 1
 55 596 l 1
 55 708 l 1
EndSplineSet
Validated: 1
EndChar

StartChar: a
Encoding: 97 97 55
Width: 547
GlyphClass: 1
Flags: HW
LayerCount: 2
Fore
SplineSet
256 528 m 0
 402 528 478 456 478 319 c 2
 478 116 l 2
 478 88 490 76 516 76 c 2
 533 76 l 1
 533 -1 l 1
 495 -7 486 -8 456 -8 c 0
 398 -8 363 18 347 74 c 1
 311 18 262 -8 196 -8 c 0
 92 -8 33 48 33 152 c 0
 33 252 114 312 256 312 c 2
 347 312 l 1
 347 339 l 2
 347 403 312 435 244 435 c 0
 194 435 142 418 108 391 c 1
 61 464 l 1
 122 508 182 528 256 528 c 0
347 225 m 1
 260 225 l 2
 193 225 165 203 165 155 c 0
 165 111 193 86 245 86 c 0
 287 86 327 112 347 142 c 1
 347 225 l 1
EndSplineSet
Validated: 1
EndChar

StartChar: acutecomb
Encoding: 769 769 58
Width: 0
VWidth: 1036
GlyphClass: 1
Flags: HW
LayerCount: 2
Fore
SplineSet
93 930 m 1
 140 832 l 1
 -104 734 l 1
 -144 811 l 1
 93 930 l 1
EndSplineSet
Validated: 1
EndChar

StartChar: ae
Encoding: 230 230 60
Width: 868
GlyphClass: 1
Flags: HW
LayerCount: 2
Fore
SplineSet
256 528 m 0
 331 528 382 506 423 455 c 1
 455 500 519 528 594 528 c 0
 734 528 828 446 828 292 c 0
 828 263 826 238 820 224 c 1
 474 224 l 1
 474 181 492 90 612 90 c 0
 685 90 737 115 772 147 c 1
 822 68 l 1
 758 24 688 -8 590 -8 c 0
 510 -8 444 27 410 79 c 1
 360 25 301 -8 199 -8 c 0
 91 -8 33 48 33 152 c 0
 33 252 114 312 256 312 c 2
 347 312 l 1
 347 339 l 2
 347 403 312 435 244 435 c 0
 194 435 142 418 108 391 c 1
 61 464 l 1
 122 508 182 528 256 528 c 0
347 225 m 1
 260 225 l 2
 193 225 165 203 165 155 c 0
 165 111 193 86 245 86 c 0
 287 86 327 112 347 142 c 1
 347 225 l 1
586 432 m 0
 522 432 474 396 474 302 c 1
 700 302 l 1
 700 316 l 2
 700 392 657 432 586 432 c 0
EndSplineSet
Validated: 1
EndChar

StartChar: ampersand
Encoding: 38 38 62
Width: 679
VWidth: 1036
GlyphClass: 1
Flags: HW
LayerCount: 2
Fore
SplineSet
434 316 m 1
 265 316 l 1
 212 296 175 258 175 202 c 0
 175 148 203 94 287 94 c 1
 331 94 388 108 434 160 c 1
 434 316 l 1
326 716 m 1
 424 716 489 689 562 640 c 1
 510 557 l 1
 456 593 391 617 334 617 c 0
 255 617 208 585 208 521 c 0
 208 483 223 448 273 420 c 1
 654 420 l 1
 654 420 654 344 654 316 c 1
 560 316 l 1
 560 112 l 1
 646 -4 l 1
 502 -4 l 1
 446 80 l 1
 395 24 321 -8 243 -8 c 1
 134 -8 33 38 33 184 c 1
 33 268 82 335 172 373 c 1
 110 406 76 465 76 538 c 1
 76 633 158 716 326 716 c 1
EndSplineSet
Validated: 1
EndChar

StartChar: asciicircum
Encoding: 94 94 64
Width: 497
VWidth: 1036
GlyphClass: 1
Flags: HW
LayerCount: 2
Fore
SplineSet
76 716 m 1
 208 852 l 1
 274 852 l 1
 406 716 l 1
 364 666 l 1
 241 786 l 1
 118 666 l 1
 76 716 l 1
EndSplineSet
Validated: 1
EndChar

StartChar: asciitilde
Encoding: 126 126 65
Width: 658
VWidth: 1036
GlyphClass: 1
Flags: HW
LayerCount: 2
Fore
SplineSet
332 304 m 1
 318 274 313 306 340 306 c 0
 334 306 336 304 338 304 c 0
 333 304 331 312 327 304 c 1
 330 304 l 1
 338 326 341 306 340 306 c 0
 334 306 338 308 338 308 c 0
 317 308 314 275 326 305 c 1
 332 304 l 1
EndSplineSet
Validated: 5
EndChar

StartChar: asterisk
Encoding: 42 42 66
Width: 541
VWidth: 1036
GlyphClass: 1
Flags: HW
LayerCount: 2
Fore
SplineSet
214 806 m 1
 306 806 l 1
 306 705 l 1
 300 672 l 1
 332 688 l 1
 431 714 l 1
 454 631 l 1
 348 600 l 1
 316 598 l 1
 340 576 l 1
 404 489 l 1
 332 440 l 1
 273 526 l 1
 260 555 l 1
 246 526 l 1
 188 440 l 1
 116 489 l 1
 179 576 l 1
 202 598 l 1
 169 601 l 1
 66 631 l 1
 88 714 l 1
 190 688 l 1
 220 672 l 1
 214 705 l 1
 214 806 l 1
EndSplineSet
Validated: 1
EndChar

StartChar: at
Encoding: 64 64 67
Width: 988
GlyphClass: 1
Flags: HW
LayerCount: 2
Fore
SplineSet
498 812 m 0
 755 812 945 641 945 386 c 0
 945 292 913 198 860 142 c 1
 757 121 l 1
 601 210 l 1
 561 152 504 122 442 122 c 0
 328 122 254 210 254 322 c 0
 254 478 353 578 479 578 c 0
 525 578 573 552 597 510 c 1
 628 570 l 1
 712 570 l 1
 671 284 l 1
 784 223 l 1
 814 265 831 324 831 382 c 0
 831 596 689 709 494 709 c 0
 312 709 148 575 148 358 c 0
 148 132 288 -7 498 -7 c 0
 590 -7 696 16 718 24 c 1
 718 -82 l 1
 684 -90 588 -108 494 -108 c 0
 229 -108 35 47 35 355 c 0
 35 645 252 812 498 812 c 0
488 478 m 0
 410 478 373 408 373 328 c 0
 373 285 390 224 466 224 c 0
 510 224 560 254 572 348 c 2
 582 425 l 1
 565 457 529 478 488 478 c 0
EndSplineSet
Validated: 1
EndChar

StartChar: b
Encoding: 98 98 69
Width: 626
VWidth: 1036
GlyphClass: 1
Flags: HW
LayerCount: 2
Fore
SplineSet
68 716 m 1
 201 716 l 1
 201 453 l 1
 236 504 288 528 356 528 c 0
 486 528 582 441 582 266 c 0
 582 90 487 -8 352 -8 c 0
 285 -8 232 26 196 80 c 1
 174 0 l 1
 68 0 l 1
 68 716 l 1
322 426 m 0
 268 426 221 396 201 346 c 1
 201 166 l 1
 225 123 270 92 324 92 c 0
 398 92 446 146 446 262 c 0
 446 381 399 426 322 426 c 0
EndSplineSet
Validated: 1
EndChar

StartChar: bar
Encoding: 124 124 71
Width: 231
VWidth: 1036
GlyphClass: 1
Flags: HW
LayerCount: 2
Fore
SplineSet
76 819 m 1
 180 819 l 1
 180 -66 l 1
 76 -66 l 1
 76 819 l 1
EndSplineSet
Validated: 1
EndChar

StartChar: braceleft
Encoding: 123 123 72
Width: 327
VWidth: 1036
GlyphClass: 1
Flags: HW
LayerCount: 2
Fore
SplineSet
312 816 m 1
 312 712 l 1
 254 712 214 671 210 618 c 1
 238 513 l 1
 238 456 198 404 146 380 c 1
 204 358 238 298 238 244 c 1
 210 132 l 1
 212 80 250 40 312 40 c 1
 312 -66 l 1
 178 -65 94 32 88 128 c 1
 120 256 l 1
 116 296 82 326 39 326 c 1
 39 434 l 1
 79 434 116 462 120 504 c 1
 91 620 l 1
 97 733 196 816 312 816 c 1
EndSplineSet
Validated: 1
EndChar

StartChar: braceright
Encoding: 125 125 73
Width: 327
VWidth: 1036
GlyphClass: 1
Flags: HW
LayerCount: 2
Fore
SplineSet
39 816 m 1
 155 816 254 733 260 620 c 1
 231 504 l 1
 235 462 272 434 312 434 c 1
 312 326 l 1
 269 326 235 296 231 256 c 1
 263 128 l 1
 257 32 173 -65 39 -66 c 1
 39 40 l 1
 101 40 139 80 141 132 c 1
 113 244 l 1
 113 298 148 358 206 380 c 1
 154 404 113 456 113 513 c 1
 141 618 l 1
 137 671 97 712 39 712 c 1
 39 816 l 1
EndSplineSet
Validated: 1
EndChar

StartChar: bracketleft
Encoding: 91 91 74
Width: 354
VWidth: 1036
GlyphClass: 1
Flags: HW
LayerCount: 2
Fore
SplineSet
62 819 m 1
 318 819 l 1
 318 714 l 1
 182 714 l 1
 182 40 l 1
 318 40 l 1
 318 -64 l 1
 62 -64 l 1
 62 819 l 1
EndSplineSet
Validated: 1
EndChar

StartChar: bracketright
Encoding: 93 93 75
Width: 354
VWidth: 1036
GlyphClass: 1
Flags: HW
LayerCount: 2
Fore
SplineSet
36 819 m 1
 292 819 l 1
 292 -64 l 1
 36 -64 l 1
 36 40 l 1
 172 40 l 1
 172 714 l 1
 36 714 l 1
 36 819 l 1
EndSplineSet
Validated: 1
EndChar

StartChar: c
Encoding: 99 99 76
Width: 529
VWidth: 1036
GlyphClass: 1
Flags: HW
LayerCount: 2
Fore
SplineSet
302 528 m 0
 396 528 447 506 509 457 c 1
 455 376 l 1
 413 412 373 428 316 428 c 0
 224 428 178 366 178 257 c 0
 178 151 224 94 315 94 c 0
 381 94 424 116 459 152 c 1
 517 72 l 1
 466 23 399 -8 300 -8 c 0
 140 -8 44 92 44 260 c 0
 44 430 140 528 302 528 c 0
EndSplineSet
Validated: 1
EndChar

StartChar: cent
Encoding: 162 162 78
Width: 529
VWidth: 1036
GlyphClass: 1
Flags: HW
LayerCount: 2
Fore
SplineSet
264 618 m 1
 359 618 l 1
 359 -94 l 1
 264 -94 l 1
 264 618 l 1
EndSplineSet
Refer: 76 99 N 1 0 0 1 0 0 2
Validated: 5
EndChar

StartChar: colon
Encoding: 58 58 79
Width: 198
VWidth: 1036
GlyphClass: 1
Flags: HW
LayerCount: 2
Fore
SplineSet
99 528 m 0
 137 528 167 498 167 460 c 0
 167 422 137 392 99 392 c 0
 61 392 31 422 31 460 c 0
 31 498 61 528 99 528 c 0
99 128 m 0
 137 128 167 98 167 60 c 0
 167 22 137 -8 99 -8 c 0
 61 -8 31 22 31 60 c 0
 31 98 61 128 99 128 c 0
EndSplineSet
Validated: 1
EndChar

StartChar: comma
Encoding: 44 44 80
Width: 167
VWidth: 1036
GlyphClass: 1
Flags: HW
LayerCount: 2
Fore
SplineSet
31 78 m 1
 144 78 l 1
 96 -146 l 1
 32 -146 l 1
 31 78 l 1
EndSplineSet
Validated: 1
EndChar

StartChar: currency
Encoding: 164 164 81
Width: 687
GlyphClass: 1
Flags: HW
LayerCount: 2
Fore
SplineSet
511 198 m 1
 653 56 l 1
 573 -25 l 1
 431 116 l 1
 511 198 l 1
256 116 m 1
 114 -25 l 1
 34 56 l 1
 176 197 l 1
 256 116 l 1
177 324 m 1
 35 466 l 1
 114 546 l 1
 256 405 l 1
 177 324 l 1
430 404 m 1
 573 546 l 1
 653 465 l 1
 510 323 l 1
 430 404 l 1
344 394 m 0
 265 394 214 334 214 259 c 0
 214 184 264 125 344 125 c 0
 423 125 474 184 474 259 c 0
 474 334 423 394 344 394 c 0
344 14 m 0
 210 14 104 124 104 260 c 0
 104 396 210 505 344 505 c 0
 478 505 584 396 584 260 c 0
 584 124 478 14 344 14 c 0
EndSplineSet
Validated: 5
EndChar

StartChar: d
Encoding: 100 100 82
Width: 621
VWidth: 1036
GlyphClass: 1
Flags: HW
LayerCount: 2
Fore
SplineSet
419 720 m 1
 553 720 l 1
 553 0 l 1
 447 0 l 1
 426 80 l 1
 386 26 333 -8 267 -8 c 0
 137 -8 40 82 40 266 c 0
 40 425 120 528 262 528 c 0
 346 528 400 475 419 451 c 1
 419 720 l 1
301 426 m 0
 200 426 177 338 177 266 c 0
 177 145 225 92 299 92 c 0
 349 92 391 118 419 162 c 1
 419 351 l 1
 392 403 351 426 301 426 c 0
EndSplineSet
Validated: 1
EndChar

StartChar: dollar
Encoding: 36 36 83
Width: 610
VWidth: 1036
GlyphClass: 1
Flags: HW
LayerCount: 2
Fore
SplineSet
268 863 m 1
 356 863 l 1
 356 -139 l 1
 268 -139 l 1
 268 863 l 1
EndSplineSet
Refer: 41 83 N 1 0 0 1 0 0 2
Validated: 5
EndChar

StartChar: dotlessi
Encoding: 305 305 84
Width: 329
VWidth: 1036
GlyphClass: 1
Flags: HW
LayerCount: 2
Fore
SplineSet
20 520 m 1
 249 520 l 1
 249 0 l 1
 113 0 l 1
 113 414 l 1
 20 414 l 1
 20 520 l 1
EndSplineSet
Validated: 1
EndChar

StartChar: e
Encoding: 101 101 85
Width: 570
VWidth: 1036
GlyphClass: 1
Flags: HW
LayerCount: 2
Fore
SplineSet
296 528 m 0
 436 528 530 446 530 292 c 0
 530 263 527 238 521 224 c 1
 176 224 l 1
 176 142 220 90 314 90 c 0
 387 90 438 115 473 147 c 1
 524 68 l 1
 460 24 389 -8 291 -8 c 0
 137 -8 40 87 40 261 c 0
 40 441 136 528 296 528 c 0
288 432 m 0
 216 432 176 386 176 302 c 1
 402 302 l 1
 402 316 l 2
 402 392 359 432 288 432 c 0
EndSplineSet
Validated: 1
EndChar

StartChar: eight
Encoding: 56 56 90
Width: 572
VWidth: 1036
GlyphClass: 1
Flags: HW
LayerCount: 2
Fore
SplineSet
285 716 m 0
 432 716 520 643 520 522 c 0
 520 449 483 392 420 370 c 1
 495 345 538 283 538 198 c 0
 538 71 441 -7 285 -7 c 0
 130 -7 35 69 35 196 c 0
 35 288 74 340 151 370 c 1
 86 392 52 444 52 522 c 0
 52 645 138 716 285 716 c 0
286 615 m 0
 218 615 180 577 180 512 c 0
 180 452 219 418 286 418 c 0
 355 418 394 452 394 512 c 0
 394 576 353 615 286 615 c 0
286 316 m 0
 214 316 169 275 169 208 c 0
 169 133 208 95 286 95 c 0
 361 95 404 135 404 204 c 0
 404 275 360 316 286 316 c 0
EndSplineSet
Validated: 1
EndChar

StartChar: equal
Encoding: 61 61 91
Width: 588
VWidth: 1036
GlyphClass: 1
Flags: HW
LayerCount: 2
Fore
SplineSet
76 428 m 1
 498 428 l 1
 498 338 l 1
 76 338 l 1
 76 428 l 1
76 227 m 1
 498 227 l 1
 498 138 l 1
 76 138 l 1
 76 227 l 1
EndSplineSet
Validated: 1
EndChar

StartChar: eth
Encoding: 240 240 92
Width: 620
GlyphClass: 1
Flags: HW
LayerCount: 2
Fore
SplineSet
168 716 m 1
 334 716 l 1
 354 704 369 692 382 681 c 1
 515 712 l 1
 515 628 l 1
 454 611 l 1
 537 516 580 394 580 260 c 0
 580 98 474 -7 306 -7 c 0
 135 -7 40 92 40 274 c 0
 40 428 133 528 276 528 c 0
 327 528 375 508 412 471 c 1
 393 507 365 546 330 584 c 1
 165 542 l 1
 164 630 l 1
 256 654 l 1
 225 681 196 702 168 716 c 1
309 428 m 0
 227 428 174 365 174 268 c 0
 174 163 221 106 308 106 c 0
 393 106 446 167 446 262 c 0
 446 312 439 348 424 382 c 1
 389 413 351 428 309 428 c 0
EndSplineSet
Validated: 1
EndChar

StartChar: exclam
Encoding: 33 33 93
Width: 272
VWidth: 1036
GlyphClass: 1
Flags: HW
LayerCount: 2
Fore
SplineSet
66 716 m 1
 211 716 l 1
 191 226 l 1
 81 226 l 1
 66 716 l 1
136 158 m 0
 184 158 218 119 218 75 c 0
 218 31 184 -7 136 -7 c 0
 88 -7 54 31 54 75 c 0
 54 119 88 158 136 158 c 0
EndSplineSet
Validated: 1
EndChar

StartChar: f
Encoding: 102 102 95
Width: 417
VWidth: 1036
GlyphClass: 1
Flags: HW
LayerCount: 2
Fore
SplineSet
299 732 m 0
 341 732 376 730 396 726 c 1
 386 635 l 1
 325 635 l 1
 281 635 260 614 260 566 c 2
 260 520 l 1
 385 520 l 1
 385 413 l 1
 260 413 l 1
 260 0 l 1
 124 0 l 1
 124 413 l 1
 28 413 l 1
 28 520 l 1
 124 520 l 1
 124 563 l 2
 124 642 163 732 299 732 c 0
EndSplineSet
Validated: 1
EndChar

StartChar: five
Encoding: 53 53 96
Width: 572
VWidth: 1036
GlyphClass: 1
Flags: HW
LayerCount: 2
Fore
SplineSet
64 708 m 1
 492 708 l 1
 492 592 l 1
 188 592 l 1
 184 386 l 1
 214 426 265 456 329 456 c 0
 454 456 534 379 534 232 c 0
 534 84 444 -8 266 -8 c 0
 174 -8 76 28 24 64 c 1
 66 163 l 1
 105 136 178 102 258 102 c 0
 349 102 398 143 398 230 c 0
 398 316 361 354 282 354 c 0
 240 354 209 335 182 305 c 1
 58 305 l 1
 64 708 l 1
EndSplineSet
Validated: 1
EndChar

StartChar: four
Encoding: 52 52 97
Width: 572
VWidth: 1036
GlyphClass: 1
Flags: HW
LayerCount: 2
Fore
SplineSet
281 708 m 1
 421 708 l 1
 176 258 l 1
 393 258 l 1
 393 484 l 1
 521 484 l 1
 521 0 l 1
 393 0 l 1
 393 144 l 1
 42 144 l 1
 42 258 l 1
 281 708 l 1
EndSplineSet
Validated: 1
EndChar

StartChar: g
Encoding: 103 103 98
Width: 592
VWidth: 1036
GlyphClass: 1
Flags: HW
LayerCount: 2
Fore
SplineSet
253 438 m 0
 194 438 164 410 164 357 c 0
 164 303 192 276 253 276 c 0
 312 276 340 304 340 356 c 0
 340 408 310 438 253 438 c 0
250 528 m 0
 324 528 377 510 413 480 c 1
 433 504 467 520 507 520 c 2
 549 520 l 1
 549 418 l 1
 450 418 l 1
 460 401 465 380 465 358 c 0
 465 254 403 202 274 190 c 0
 188 182 163 170 163 140 c 0
 163 120 182 110 222 110 c 2
 383 110 l 2
 493 110 556 61 556 -23 c 0
 556 -135 462 -192 284 -192 c 0
 164 -192 67 -157 3 -117 c 1
 48 -34 l 1
 97 -64 187 -96 282 -96 c 0
 388 -96 432 -77 432 -37 c 0
 432 -9 410 6 374 6 c 2
 210 6 l 2
 103 6 52 44 52 116 c 0
 52 160 78 191 140 209 c 1
 76 234 40 290 40 357 c 0
 40 463 111 528 250 528 c 0
EndSplineSet
Validated: 1
EndChar

StartChar: grave
Encoding: 96 96 99
Width: 314
VWidth: 1036
GlyphClass: 1
Flags: HW
LayerCount: 2
Fore
SplineSet
58 918 m 1
 296 799 l 1
 255 722 l 1
 11 820 l 1
 58 918 l 1
EndSplineSet
Validated: 1
EndChar

StartChar: gravecomb
Encoding: 768 768 100
Width: 0
VWidth: 1036
GlyphClass: 1
Flags: HW
LayerCount: 2
Fore
SplineSet
-98 930 m 1
 140 811 l 1
 99 734 l 1
 -145 832 l 1
 -98 930 l 1
EndSplineSet
Validated: 1
EndChar

StartChar: greater
Encoding: 62 62 101
Width: 559
VWidth: 1036
GlyphClass: 1
Flags: HW
LayerCount: 2
Fore
SplineSet
72 508 m 1
 493 330 l 1
 493 226 l 1
 72 49 l 1
 33 143 l 1
 369 278 l 1
 33 414 l 1
 72 508 l 1
EndSplineSet
Validated: 1
EndChar

StartChar: h
Encoding: 104 104 102
Width: 593
VWidth: 1036
GlyphClass: 1
Flags: HW
LayerCount: 2
Fore
SplineSet
60 708 m 1
 196 708 l 1
 196 446 l 1
 235 501 286 528 354 528 c 0
 470 528 534 454 534 322 c 2
 534 0 l 1
 398 0 l 1
 398 314 l 2
 398 383 366 417 306 417 c 0
 264 417 226 394 196 350 c 1
 196 0 l 1
 60 0 l 1
 60 708 l 1
EndSplineSet
Validated: 1
EndChar

StartChar: hyphen
Encoding: 45 45 103
Width: 466
VWidth: 1036
GlyphClass: 1
Flags: HW
LayerCount: 2
Fore
SplineSet
49 319 m 1
 417 319 l 1
 417 217 l 1
 49 217 l 1
 49 319 l 1
EndSplineSet
Validated: 1
EndChar

StartChar: i
Encoding: 105 105 104
Width: 319
VWidth: 1036
GlyphClass: 1
Flags: HW
LayerCount: 2
Fore
SplineSet
20 520 m 1
 249 520 l 1
 249 0 l 1
 113 0 l 1
 113 415 l 1
 20 415 l 1
 20 520 l 1
183 741 m 0
 225 741 259 711 259 665 c 0
 259 621 225 589 183 589 c 0
 141 589 107 621 107 665 c 0
 107 711 141 741 183 741 c 0
EndSplineSet
Validated: 1
EndChar

StartChar: j
Encoding: 106 106 109
Width: 291
VWidth: 1036
GlyphClass: 1
Flags: HW
LayerCount: 2
Fore
SplineSet
78 520 m 1
 214 520 l 1
 214 -6 l 1
 214 -90 186 -192 10 -192 c 1
 -5 -192 l 1
 -5 -81 l 1
 10 -81 l 1
 42 -81 78 -69 78 -9 c 1
 78 520 l 1
146 743 m 0
 188 743 223 709 223 668 c 0
 223 627 188 592 146 592 c 0
 105 592 71 626 71 668 c 0
 71 710 105 743 146 743 c 0
EndSplineSet
Validated: 1
EndChar

StartChar: k
Encoding: 107 107 110
Width: 576
VWidth: 1036
GlyphClass: 1
Flags: HW
LayerCount: 2
Fore
SplineSet
72 708 m 1
 208 708 l 1
 208 334 l 1
 246 334 l 1
 397 520 l 1
 553 520 l 1
 349 275 l 1
 562 0 l 1
 405 0 l 1
 244 215 l 1
 208 215 l 1
 208 0 l 1
 72 0 l 1
 72 708 l 1
EndSplineSet
Validated: 1
EndChar

StartChar: l
Encoding: 108 108 111
Width: 303
VWidth: 1036
GlyphClass: 1
Flags: HW
LayerCount: 2
Fore
SplineSet
64 772 m 1
 200 772 l 1
 200 144 l 2
 200 117 210 104 234 104 c 1
 236 104 248 106 252 106 c 1
 286 110 l 1
 297 4 l 1
 271 -2 234 -8 202 -8 c 0
 120 -8 64 41 64 123 c 2
 64 772 l 1
EndSplineSet
Validated: 1
EndChar

StartChar: less
Encoding: 60 60 112
Width: 538
VWidth: 1036
GlyphClass: 1
Flags: HW
LayerCount: 2
Fore
SplineSet
46 330 m 1
 467 508 l 1
 506 414 l 1
 170 278 l 1
 506 143 l 1
 467 49 l 1
 46 226 l 1
 46 330 l 1
EndSplineSet
Validated: 1
EndChar

StartChar: m
Encoding: 109 109 113
Width: 885
VWidth: 1036
GlyphClass: 1
Flags: HW
LayerCount: 2
Fore
SplineSet
72 520 m 1
 168 520 l 1
 208 446 l 1
 245 500 289 528 353 528 c 0
 417 528 470 501 492 444 c 1
 526 501 568 528 642 528 c 0
 744 528 813 465 813 335 c 2
 813 0 l 1
 677 0 l 1
 677 330 l 2
 677 398 650 424 597 424 c 0
 565 424 532 407 508 375 c 1
 508 0 l 1
 372 0 l 1
 372 341 l 2
 372 401 344 424 297 424 c 0
 259 424 229 404 208 375 c 1
 208 0 l 1
 72 0 l 1
 72 520 l 1
EndSplineSet
Validated: 1
EndChar

StartChar: mu
Encoding: 181 181 114
Width: 639
VWidth: 1036
GlyphClass: 1
Flags: HW
LayerCount: 2
Fore
SplineSet
71 520 m 1
 206 520 l 1
 206 143 l 1
 211 132 246 90 318 90 c 0
 379 90 426 127 426 215 c 1
 426 520 l 1
 554 520 l 1
 554 132 l 1
 554 96 570 82 603 82 c 1
 616 82 l 1
 616 0 l 1
 604 -3 564 -8 544 -8 c 1
 484 -8 444 22 434 62 c 1
 412 18 368 -8 316 -8 c 0
 260 -8 214 8 182 48 c 1
 198 25 206 4 206 -20 c 1
 206 -192 l 1
 71 -192 l 1
 71 520 l 1
EndSplineSet
Validated: 1
EndChar

StartChar: n
Encoding: 110 110 115
Width: 611
VWidth: 1036
GlyphClass: 1
Flags: HW
LayerCount: 2
Fore
SplineSet
72 520 m 1
 177 520 l 1
 208 440 l 1
 244 498 300 528 363 528 c 0
 475 528 539 453 539 327 c 2
 539 0 l 1
 403 0 l 1
 403 319 l 2
 403 391 375 420 318 420 c 0
 273 420 232 396 208 356 c 1
 208 0 l 1
 72 0 l 1
 72 520 l 1
EndSplineSet
Validated: 1
EndChar

StartChar: nine
Encoding: 57 57 116
Width: 572
VWidth: 1036
GlyphClass: 1
Flags: HW
LayerCount: 2
Fore
SplineSet
289 716 m 0
 449 716 542 615 542 398 c 0
 542 116 441 -8 259 -8 c 1
 181 -8 113 10 39 56 c 1
 82 152 l 1
 126 118 180 100 251 100 c 0
 363 100 408 175 408 353 c 1
 386 294 330 256 258 256 c 0
 110 256 36 343 36 481 c 0
 36 629 139 716 289 716 c 0
287 604 m 0
 218 604 172 558 172 477 c 0
 172 397 216 358 288 358 c 0
 358 358 406 402 406 478 c 0
 406 560 363 604 287 604 c 0
EndSplineSet
Validated: 1
EndChar

StartChar: numbersign
Encoding: 35 35 118
Width: 655
VWidth: 1036
GlyphClass: 1
Flags: HW
LayerCount: 2
Fore
SplineSet
240 724 m 1
 365 724 l 1
 318 548 l 1
 432 548 l 1
 478 724 l 1
 603 724 l 1
 556 548 l 1
 619 548 l 1
 619 434 l 1
 528 434 l 1
 490 294 l 1
 619 294 l 1
 619 180 l 1
 462 180 l 1
 414 0 l 1
 290 0 l 1
 337 180 l 1
 224 180 l 1
 176 0 l 1
 52 0 l 1
 99 180 l 1
 36 180 l 1
 36 294 l 1
 128 294 l 1
 166 434 l 1
 36 434 l 1
 36 548 l 1
 194 548 l 1
 240 724 l 1
366 294 m 1
 404 434 l 1
 290 434 l 1
 252 294 l 1
 366 294 l 1
EndSplineSet
Validated: 1
EndChar

StartChar: o
Encoding: 111 111 119
Width: 591
VWidth: 1036
GlyphClass: 1
Flags: HW
LayerCount: 2
Fore
SplineSet
296 426 m 0
 214 426 172 370 172 256 c 0
 172 146 212 95 294 95 c 0
 376 95 420 149 420 259 c 0
 420 369 376 426 296 426 c 0
296 528 m 0
 456 528 556 427 556 259 c 0
 556 95 452 -8 294 -8 c 0
 139 -8 36 93 36 259 c 0
 36 429 136 528 296 528 c 0
EndSplineSet
Validated: 1
EndChar

StartChar: one
Encoding: 49 49 124
Width: 588
VWidth: 1036
GlyphClass: 1
Flags: HW
LayerCount: 2
Fore
SplineSet
283 708 m 1
 383 708 l 1
 383 114 l 1
 534 114 l 1
 534 0 l 1
 66 0 l 1
 66 114 l 1
 247 114 l 1
 247 571 l 1
 61 490 l 1
 61 616 l 1
 283 708 l 1
EndSplineSet
Validated: 1
EndChar

StartChar: oslash
Encoding: 248 248 125
Width: 591
VWidth: 1036
GlyphClass: 1
Flags: HW
LayerCount: 2
Fore
SplineSet
440 520 m 1
 558 520 l 1
 156 0 l 1
 38 0 l 1
 440 520 l 1
EndSplineSet
Refer: 119 111 N 1 0 0 1 0 0 2
Validated: 5
EndChar

StartChar: p
Encoding: 112 112 127
Width: 625
VWidth: 1036
GlyphClass: 1
Flags: HW
LayerCount: 2
Fore
SplineSet
326 426 m 0
 274 426 232 401 206 352 c 1
 206 172 l 1
 234 118 274 92 324 92 c 0
 404 92 449 153 449 262 c 0
 449 371 408 426 326 426 c 0
72 520 m 1
 178 520 l 1
 206 446 l 1
 247 500 299 528 361 528 c 0
 499 528 585 425 585 260 c 0
 585 98 498 -8 366 -8 c 0
 324 -8 251 3 206 65 c 1
 206 -192 l 1
 72 -192 l 1
 72 520 l 1
EndSplineSet
Validated: 1
EndChar

StartChar: paragraph
Encoding: 182 182 128
Width: 543
GlyphClass: 1
Flags: HW
LayerCount: 2
Fore
SplineSet
370 0 m 1
 370 708 l 1
 514 708 l 1
 514 644 l 1
 446 644 l 1
 446 65 l 1
 514 65 l 1
 514 0 l 1
 370 0 l 1
38 544 m 0
 38 640 111 708 212 708 c 2
 302 708 l 1
 302 0 l 1
 226 0 l 1
 226 367 l 1
 212 367 l 2
 106 367 38 437 38 544 c 0
EndSplineSet
Validated: 1
EndChar

StartChar: parenleft
Encoding: 40 40 129
Width: 349
VWidth: 1036
GlyphClass: 1
Flags: HW
LayerCount: 2
Fore
SplineSet
197 800 m 1
 334 800 l 1
 278 754 156 624 156 370 c 0
 156 185 220 32 334 -64 c 1
 196 -64 l 1
 85 26 22 187 22 370 c 0
 22 556 87 711 197 800 c 1
EndSplineSet
Validated: 1
EndChar

StartChar: parenright
Encoding: 41 41 130
Width: 350
VWidth: 1036
GlyphClass: 1
Flags: HW
LayerCount: 2
Fore
SplineSet
16 800 m 1
 156 800 l 1
 227 742 328 597 328 371 c 0
 328 175 264 28 150 -64 c 1
 16 -64 l 1
 88 -12 192 130 192 371 c 0
 192 578 114 716 16 800 c 1
EndSplineSet
Validated: 1
EndChar

StartChar: percent
Encoding: 37 37 131
Width: 807
GlyphClass: 1
Flags: HW
LayerCount: 2
Back
SplineSet
608.5 480 m 1
 588.5 480 653 467.5 653 442.5 c 1
 653 417.166666666 427.5 50.5 447.5 50.5 c 1
 467.5 50.5 402.5 63.1666666665 402.5 88.5 c 1
 402.5 113.5 628.5 480 608.5 480 c 1
411 538.5 m 0
 498.5 538.5 539 484.666666666 553 432 c 0
 567 379.333333334 553.666666667 318.916666666 492.5 305.75 c 0
 432.833333333 292.583333333 411 327.166666667 411 354.5 c 0
 411 381.833333334 408.333333333 281.416666667 403 311.25 c 0
 397.666666667 341.083333333 388 243.666666667 374 277 c 0
 360 310.333333333 342.5 219.5 321.5 262.5 c 0
 291.5 305.5 269.083333333 228.666666667 254.25 290 c 0
 239.416666666 351.333333333 232 286.833333333 232 354.5 c 0
 232 422.166666666 239.416666666 357.666666666 254.25 419 c 0
 269.083333333 480.333333334 316 538.5 411 538.5 c 0
195 608 m 0
 155.5 608 135 583 135 533 c 0
 135 483.166666666 155 457 195 457 c 0
 235 457 255 483.166666666 255 533 c 0
 255 582.5 234.5 608 195 608 c 0
424 483.5 m 0
 425.5 483.5 432.5 466.166666667 446.5 431.5 c 0
 460.5 397.333333333 480.166666666 372.416666667 505.5 359.25 c 0
 530.833333334 346.083333333 543.5 345.166666667 543.5 354 c 0
 543.5 362.833333334 540.833333334 299.416666666 535.5 310.75 c 0
 530.166666666 322.083333334 520.5 261.666666666 506.5 276.5 c 0
 492.5 291.333333334 475 237.5 454 262 c 0
 424 286.5 401.583333333 246.666666666 386.75 289.5 c 0
 371.916666667 332.333333334 364.5 304.833333334 364.5 354 c 0
 364.5 403.166666667 371.916666667 375.666666667 386.75 418.5 c 0
 401.583333333 461.333333333 413.5 483.5 424 483.5 c 0
621.5 534 m 1
 688 534 772.5 485 772.5 442 c 1
 772.5 399 514 -4 447.5 -4 c 1
 382.5 -4 296 45 296 88 c 1
 296 131 556.5 534 621.5 534 c 1
EndSplineSet
Fore
SplineSet
545 708 m 1
 662 708 l 1
 252 0 l 1
 134 0 l 1
 545 708 l 1
593 341 m 0
 691 341 757 270 757 166 c 0
 757 62 691 -8 593 -8 c 0
 495 -8 429 62 429 166 c 0
 429 270 495 341 593 341 c 0
592 252 m 0
 550 252 528 222 528 164 c 0
 528 109 551 82 594 82 c 0
 637 82 658 109 658 164 c 0
 658 203 644 252 592 252 c 0
202 626 m 0
 159 626 138 598 138 540 c 0
 138 484 160 457 204 457 c 0
 247 457 268 484 268 541 c 0
 268 581 253 626 202 626 c 0
204 716 m 0
 302 716 367 646 367 542 c 0
 367 438 301 366 202 366 c 0
 104 366 40 438 40 542 c 0
 40 646 105 716 204 716 c 0
EndSplineSet
Validated: 1
EndChar

StartChar: period
Encoding: 46 46 132
Width: 215
VWidth: 1036
GlyphClass: 1
Flags: HW
LayerCount: 2
Fore
SplineSet
110 157 m 0
 158 157 192 124 192 74 c 0
 192 24 158 -8 110 -8 c 0
 62 -8 28 24 28 74 c 0
 28 123 62 157 110 157 c 0
EndSplineSet
Validated: 1
EndChar

StartChar: plus
Encoding: 43 43 133
Width: 580
VWidth: 1036
GlyphClass: 1
Flags: HW
LayerCount: 2
Fore
SplineSet
235 480 m 1
 339 480 l 1
 339 319 l 1
 504 319 l 1
 504 215 l 1
 339 215 l 1
 339 54 l 1
 235 54 l 1
 235 215 l 1
 72 215 l 1
 72 319 l 1
 235 319 l 1
 235 480 l 1
EndSplineSet
Validated: 1
EndChar

StartChar: q
Encoding: 113 113 134
Width: 629
VWidth: 1036
GlyphClass: 1
Flags: HW
LayerCount: 2
Fore
SplineSet
303 426 m 0
 222 426 180 370 180 260 c 0
 180 154 226 92 305 92 c 0
 359 92 403 123 423 171 c 1
 423 352 l 1
 397 399 351 426 303 426 c 0
451 520 m 1
 557 520 l 1
 557 -191 l 1
 423 -191 l 1
 423 62 l 1
 376 13 328 -8 262 -8 c 0
 128 -8 44 96 44 260 c 0
 44 428 128 528 266 528 c 0
 329 528 385 499 425 446 c 1
 451 520 l 1
EndSplineSet
Validated: 1
EndChar

StartChar: question
Encoding: 63 63 135
Width: 538
VWidth: 1036
GlyphClass: 1
Flags: HW
LayerCount: 2
Fore
SplineSet
256 732 m 0
 338 732 490 696 490 550 c 0
 490 481 459 431 408 397 c 0
 318 329 302 315 302 256 c 1
 302 247 303 218 305 212 c 1
 184 198 l 1
 180 214 176 241 176 259 c 0
 176 344 219 386 291 439 c 0
 334 468 356 492 356 536 c 0
 356 586 325 621 246 621 c 0
 192 621 140 601 94 566 c 1
 40 662 l 1
 107 709 170 732 256 732 c 0
253 158 m 0
 301 158 336 119 336 75 c 0
 336 31 301 -7 253 -7 c 0
 205 -7 171 31 171 75 c 0
 171 119 204 158 253 158 c 0
EndSplineSet
Validated: 1
EndChar

StartChar: quotedbl
Encoding: 34 34 137
Width: 371
VWidth: 1036
GlyphClass: 1
Flags: HW
LayerCount: 2
Fore
SplineSet
38 772 m 1
 150 772 l 1
 138 520 l 1
 51 520 l 1
 38 772 l 1
221 772 m 1
 333 772 l 1
 321 520 l 1
 234 520 l 1
 221 772 l 1
EndSplineSet
Validated: 1
EndChar

StartChar: quotesingle
Encoding: 39 39 138
Width: 171
VWidth: 1036
GlyphClass: 1
Flags: HW
LayerCount: 2
Fore
SplineSet
29 772 m 1
 142 772 l 1
 130 521 l 1
 42 521 l 1
 29 772 l 1
EndSplineSet
Validated: 1
EndChar

StartChar: r
Encoding: 114 114 139
Width: 395
VWidth: 1036
GlyphClass: 1
Flags: HW
LayerCount: 2
Fore
SplineSet
68 520 m 1
 169 520 l 1
 192 431 l 1
 197 492 243 528 317 528 c 0
 340 528 357 527 375 524 c 1
 365 418 l 1
 312 418 l 2
 266 418 228 396 204 354 c 1
 204 0 l 1
 68 0 l 1
 68 520 l 1
EndSplineSet
Validated: 1
EndChar

StartChar: s
Encoding: 115 115 140
Width: 489
VWidth: 1036
GlyphClass: 1
Flags: HW
LayerCount: 2
Fore
SplineSet
258 528 m 0
 334 528 405 505 463 461 c 1
 404 387 l 1
 362 417 309 434 257 434 c 0
 215 434 164 422 164 378 c 0
 164 348 185 329 230 321 c 1
 320 304 l 2
 428 284 472 233 472 148 c 0
 472 41 376 -8 236 -8 c 0
 143 -8 62 17 16 62 c 1
 74 138 l 1
 110 104 172 84 238 84 c 0
 286 84 346 95 346 143 c 0
 346 179 325 194 271 204 c 2
 184 219 l 2
 108 232 38 277 38 378 c 0
 38 466 116 528 258 528 c 0
EndSplineSet
Validated: 1
EndChar

StartChar: section
Encoding: 167 167 141
Width: 592
GlyphClass: 1
Flags: HW
LayerCount: 2
Fore
SplineSet
328 768 m 0
 415 768 501 737 558 695 c 1
 506 608 l 1
 461 640 395 663 334 663 c 0
 275 663 197 649 197 570 c 0
 197 509 222 487 322 465 c 1
 372 454 l 2
 499 425 563 360 563 250 c 0
 563 192 538 139 494 102 c 1
 514 76 523 44 523 4 c 0
 523 -115 429 -191 258 -191 c 0
 172 -191 80 -158 18 -116 c 1
 66 -22 l 1
 112 -62 195 -89 258 -89 c 0
 334 -89 398 -70 398 9 c 0
 398 61 372 98 278 118 c 1
 206 133 l 1
 108 153 28 203 28 328 c 0
 28 384 54 439 96 473 c 1
 78 499 68 536 68 580 c 0
 68 687 165 768 328 768 c 0
170 409 m 1
 154 394 143 370 143 340 c 0
 143 278 171 248 255 230 c 2
 324 214 l 2
 367 205 398 192 422 173 c 1
 440 189 449 214 449 242 c 0
 449 296 422 334 330 354 c 1
 260 370 l 1
 222 377 192 389 170 409 c 1
EndSplineSet
Validated: 1
EndChar

StartChar: semicolon
Encoding: 59 59 142
Width: 198
VWidth: 1036
GlyphClass: 1
Flags: HW
LayerCount: 2
Fore
SplineSet
99 528 m 0
 137 528 167 498 167 460 c 0
 167 422 137 392 99 392 c 0
 61 392 31 422 31 460 c 0
 31 498 61 528 99 528 c 0
46 78 m 1
 158 78 l 1
 111 -146 l 1
 46 -146 l 1
 46 78 l 1
EndSplineSet
Validated: 1
EndChar

StartChar: seven
Encoding: 55 55 143
Width: 572
VWidth: 1036
GlyphClass: 1
Flags: HW
LayerCount: 2
Fore
SplineSet
38 708 m 1
 524 708 l 1
 524 598 l 1
 276 0 l 1
 132 0 l 1
 388 596 l 1
 38 596 l 1
 38 708 l 1
EndSplineSet
Validated: 1
EndChar

StartChar: six
Encoding: 54 54 144
Width: 572
VWidth: 1036
GlyphClass: 1
Flags: HW
LayerCount: 2
Fore
SplineSet
312 716 m 0
 396 716 461 693 526 644 c 1
 472 556 l 1
 420 592 372 608 319 608 c 0
 214 608 168 532 168 362 c 1
 183 416 255 460 328 460 c 0
 463 460 540 375 540 228 c 0
 540 83 443 -8 287 -8 c 0
 119 -8 35 102 35 323 c 0
 35 582 130 716 312 716 c 0
287 358 m 0
 212 358 171 316 171 238 c 0
 171 148 210 103 288 103 c 0
 362 103 404 152 404 234 c 0
 404 314 363 358 287 358 c 0
EndSplineSet
Validated: 1
EndChar

StartChar: slash
Encoding: 47 47 145
Width: 397
VWidth: 1036
GlyphClass: 1
Flags: HW
LayerCount: 2
Fore
SplineSet
305 772 m 1
 432 772 l 1
 92 -34 l 1
 -35 -34 l 1
 305 772 l 1
EndSplineSet
Validated: 1
EndChar

StartChar: sterling
Encoding: 163 163 146
Width: 618
GlyphClass: 1
Flags: HW
LayerCount: 2
Fore
SplineSet
354 716 m 0
 464 716 532 670 574 636 c 1
 518 552 l 1
 467 592 417 612 354 612 c 0
 288 612 234 575 234 511 c 0
 234 481 240 458 260 410 c 1
 455 410 l 1
 455 298 l 1
 304 298 l 1
 306 286 308 274 308 263 c 0
 308 190 278 143 224 110 c 1
 564 110 l 1
 564 0 l 1
 60 0 l 1
 60 120 l 1
 126 130 181 172 181 268 c 0
 181 278 180 287 178 298 c 1
 34 298 l 1
 34 410 l 1
 136 410 l 1
 122 440 108 480 108 518 c 0
 108 610 188 716 354 716 c 0
EndSplineSet
Validated: 1
EndChar

StartChar: t
Encoding: 116 116 147
Width: 441
VWidth: 1036
GlyphClass: 1
Flags: HW
LayerCount: 2
Fore
SplineSet
128 632 m 1
 263 687 l 1
 263 520 l 1
 388 520 l 1
 388 420 l 1
 263 420 l 1
 263 158 l 2
 263 116 280 96 314 96 c 1
 328 96 339 97 349 98 c 2
 386 103 l 1
 400 6 l 1
 352 -4 324 -8 296 -8 c 0
 182 -8 128 48 128 164 c 2
 128 420 l 1
 26 420 l 1
 26 520 l 1
 128 520 l 1
 128 632 l 1
EndSplineSet
Validated: 1
EndChar

StartChar: thorn
Encoding: 254 254 148
Width: 633
VWidth: 1036
GlyphClass: 1
Flags: HW
LayerCount: 2
Fore
SplineSet
72 708 m 1
 206 708 l 1
 206 446 l 1
 247 500 299 528 361 528 c 0
 499 528 585 425 585 260 c 0
 585 98 498 -8 366 -8 c 0
 324 -8 251 3 206 65 c 1
 206 -192 l 1
 72 -192 l 1
 72 708 l 1
326 426 m 0
 274 426 232 401 206 352 c 1
 206 172 l 1
 234 118 274 92 324 92 c 0
 404 92 449 153 449 262 c 0
 449 371 408 426 326 426 c 0
EndSplineSet
Validated: 1
EndChar

StartChar: three
Encoding: 51 51 149
Width: 572
VWidth: 1036
GlyphClass: 1
Flags: HW
LayerCount: 2
Fore
SplineSet
70 708 m 1
 512 708 l 1
 512 620 l 1
 334 428 l 1
 447 426 542 360 542 226 c 0
 542 108 465 -8 272 -8 c 0
 174 -8 96 21 20 80 c 1
 74 171 l 1
 128 126 194 100 270 100 c 0
 364 100 406 141 406 226 c 0
 406 298 356 336 276 336 c 2
 213 336 l 1
 188 424 l 1
 350 601 l 1
 70 601 l 1
 70 708 l 1
EndSplineSet
Validated: 1
EndChar

StartChar: tildecomb
Encoding: 771 771 150
Width: 0
VWidth: 1036
GlyphClass: 1
Flags: HW
LayerCount: 2
Fore
SplineSet
-78 915 m 0
 -6 915 10 859 58 859 c 0
 92 859 108 879 108 911 c 1
 206 911 l 1
 206 811 146 765 70 765 c 0
 -2 765 -17 822 -63 822 c 0
 -96 822 -113 805 -113 769 c 1
 -212 769 l 1
 -212 850 -177 915 -78 915 c 0
EndSplineSet
Validated: 1
EndChar

StartChar: two
Encoding: 50 50 151
Width: 572
VWidth: 1036
GlyphClass: 1
Flags: HW
LayerCount: 2
Fore
SplineSet
46 628 m 1
 112 684 176 716 276 716 c 0
 406 716 512 637 512 510 c 0
 512 433 479 371 377 272 c 1
 371 266 226 116 226 116 c 1
 519 116 l 1
 518 0 l 1
 53 0 l 1
 53 100 l 1
 292 346 l 2
 361 420 380 450 380 506 c 0
 380 564 337 610 262 610 c 0
 202 610 147 585 100 540 c 1
 46 628 l 1
EndSplineSet
Validated: 1
EndChar

StartChar: u
Encoding: 117 117 152
Width: 598
VWidth: 1036
GlyphClass: 1
Flags: HW
LayerCount: 2
Fore
SplineSet
64 520 m 1
 200 520 l 1
 200 206 l 2
 200 134 229 100 284 100 c 0
 319 100 360 117 396 169 c 1
 396 520 l 1
 530 520 l 1
 530 0 l 1
 425 0 l 1
 396 80 l 1
 374 46 316 -8 234 -8 c 0
 155 -8 64 31 64 198 c 2
 64 520 l 1
EndSplineSet
Validated: 1
EndChar

StartChar: underscore
Encoding: 95 95 157
Width: 570
VWidth: 1036
GlyphClass: 1
Flags: HW
LayerCount: 2
Fore
SplineSet
94 0 m 1
 497 0 l 1
 497 -89 l 1
 94 -89 l 1
 94 0 l 1
EndSplineSet
Validated: 1
EndChar

StartChar: uni0302
Encoding: 770 770 159
Width: 0
VWidth: 1036
GlyphClass: 1
Flags: HW
LayerCount: 2
Fore
SplineSet
-34 930 m 1
 34 930 l 1
 185 802 l 1
 130 730 l 1
 0 835 l 1
 -134 730 l 1
 -185 802 l 1
 -34 930 l 1
EndSplineSet
Validated: 1
EndChar

StartChar: uni0308
Encoding: 776 776 161
Width: 0
VWidth: 1036
GlyphClass: 1
Flags: HW
LayerCount: 2
Fore
SplineSet
-104 922 m 0
 -66 922 -35 891 -35 852 c 0
 -35 814 -66 782 -104 782 c 0
 -143 782 -175 814 -175 852 c 0
 -175 890 -143 922 -104 922 c 0
104 922 m 0
 143 922 175 890 175 852 c 0
 175 814 143 782 104 782 c 0
 66 782 35 814 35 852 c 0
 35 891 66 922 104 922 c 0
EndSplineSet
Validated: 1
EndChar

StartChar: uni030A
Encoding: 778 778 162
Width: 0
VWidth: 1036
GlyphClass: 1
Flags: HW
LayerCount: 2
Fore
SplineSet
0 948 m 0
 60 948 109 903 109 840 c 0
 109 777 60 732 0 732 c 0
 -60 732 -109 777 -109 840 c 0
 -109 903 -60 948 0 948 c 0
0 878 m 0
 -22 878 -38 863 -38 840 c 0
 -38 817 -22 802 0 802 c 0
 22 802 38 817 38 840 c 0
 38 863 22 878 0 878 c 0
EndSplineSet
Validated: 1
EndChar

StartChar: uni0327
Encoding: 807 807 163
Width: 0
GlyphClass: 1
Flags: HW
LayerCount: 2
Fore
SplineSet
-60 4 m 1
 64 4 l 1
 64 -78 l 1
 64 -146 17 -224 -95 -224 c 1
 -117 -224 -144 -220 -155 -216 c 1
 -142 -120 l 1
 -98 -120 l 1
 -73 -120 -60 -106 -60 -80 c 1
 -60 4 l 1
EndSplineSet
Validated: 1
EndChar

StartChar: v
Encoding: 118 118 164
Width: 574
VWidth: 1036
GlyphClass: 1
Flags: HW
LayerCount: 2
Fore
SplineSet
18 520 m 1
 151 520 l 1
 290 125 l 1
 423 520 l 1
 556 520 l 1
 363 0 l 1
 217 0 l 1
 18 520 l 1
EndSplineSet
Validated: 1
EndChar

StartChar: w
Encoding: 119 119 165
Width: 789
VWidth: 1036
GlyphClass: 1
Flags: HW
LayerCount: 2
Fore
SplineSet
22 520 m 1
 146 520 l 1
 222 149 l 1
 324 520 l 1
 466 520 l 1
 560 154 l 1
 642 520 l 1
 768 520 l 1
 642 0 l 1
 486 0 l 1
 394 364 l 1
 297 0 l 1
 141 0 l 1
 22 520 l 1
EndSplineSet
Validated: 1
EndChar

StartChar: x
Encoding: 120 120 166
Width: 552
VWidth: 1036
GlyphClass: 1
Flags: HW
LayerCount: 2
Fore
SplineSet
17 520 m 1
 162 520 l 1
 278 330 l 1
 392 520 l 1
 536 520 l 1
 360 260 l 1
 536 0 l 1
 392 0 l 1
 278 191 l 1
 162 0 l 1
 17 0 l 1
 192 260 l 1
 17 520 l 1
EndSplineSet
Validated: 1
EndChar

StartChar: y
Encoding: 121 121 167
Width: 570
VWidth: 1036
GlyphClass: 1
Flags: HW
LayerCount: 2
Fore
SplineSet
24 520 m 1
 174 520 l 1
 279 216 l 1
 290 150 l 1
 302 216 l 1
 410 520 l 1
 552 520 l 1
 264 -192 l 1
 134 -192 l 1
 225 32 l 1
 24 520 l 1
EndSplineSet
Validated: 1
EndChar

StartChar: yen
Encoding: 165 165 170
Width: 621
VWidth: 1036
GlyphClass: 1
Flags: HW
LayerCount: 2
Fore
SplineSet
90 350 m 1
 534 350 l 1
 534 264 l 1
 90 264 l 1
 90 350 l 1
90 179 m 1
 534 179 l 1
 534 92 l 1
 90 92 l 1
 90 179 l 1
EndSplineSet
Refer: 52 89 N 1 0 0 1 0 0 2
Validated: 5
EndChar

StartChar: z
Encoding: 122 122 171
Width: 547
VWidth: 1036
GlyphClass: 1
Flags: HW
LayerCount: 2
Fore
SplineSet
53 520 m 1
 484 520 l 1
 484 430 l 1
 222 104 l 1
 495 104 l 1
 495 0 l 1
 52 0 l 1
 52 88 l 1
 322 414 l 1
 53 414 l 1
 53 520 l 1
EndSplineSet
Validated: 1
EndChar

StartChar: zero
Encoding: 48 48 172
Width: 572
VWidth: 1036
GlyphClass: 1
Flags: HW
LayerCount: 2
Fore
SplineSet
286 604 m 0
 210 604 164 542 164 358 c 0
 164 190 198 105 284 105 c 0
 372 105 408 188 408 360 c 0
 408 550 356 604 286 604 c 0
286 716 m 0
 452 716 544 593 544 358 c 0
 544 154 469 -7 285 -7 c 0
 121 -7 28 117 28 356 c 0
 28 592 121 716 286 716 c 0
EndSplineSet
Validated: 1
EndChar
